<svg id="Layer_1" data-name="Layer 1" xmlns="http://www.w3.org/2000/svg" xmlns:xlink="http://www.w3.org/1999/xlink" viewBox="0 0 114.93 111.53"><defs><style>.cls-1{fill:none;}.cls-2{clip-path:url(#clip-path);}</style><clipPath id="clip-path" transform="translate(-49.82 -52.31)"><rect class="cls-1" width="216" height="216"/></clipPath></defs><title>LogoMark - Black</title><g class="cls-2"><path d="M140.66,163.2l21.13-14.93a5.52,5.52,0,0,0,2.32-7.46l-45-85.55a5.52,5.52,0,0,0-7.46-2.32L87,61.6a5.52,5.52,0,0,0-2.32,7.46l48.51,91.82a5.52,5.52,0,0,0,7.46,2.32" transform="translate(-49.82 -52.31)"/><path d="M83.23,140.08c0-10.49-6.61-17.87-16.32-17.87-9.9,0-17.09,7.38-17.09,17.87S57,158,66.91,158c9.71,0,16.32-7.38,16.32-17.87" transform="translate(-49.82 -52.31)"/></g></svg>
