<svg width="150" height="17" viewBox="0 0 150 17" fill="none" xmlns="http://www.w3.org/2000/svg">
<path d="M75.3502 0C79.4848 0 81.5805 2.28682 81.5805 2.28682L79.6955 4.7162C79.6955 4.7162 77.913 3.03388 75.3218 3.03388C72.2066 3.03388 70.0311 5.28648 70.0311 8.51426C70.0311 11.7135 72.1838 13.9433 75.2648 13.9433C77.856 13.9433 79.6158 12.3522 79.7126 9.95706H74.6156V7.17981H82.9872V8.7994C82.9872 13.8578 80.0429 17 75.299 17C70.2931 17 66.7964 13.5099 66.7964 8.51426C66.7964 3.50151 70.3159 0 75.3502 0ZM134.823 0.34787L141.839 8.24052L148.907 0.34787H150V16.635H146.839V6.88896L142.813 11.6793C142.557 11.9473 142.209 12.0956 141.839 12.0956C141.469 12.0956 141.127 11.9473 140.854 11.6679L136.839 6.88896V16.6407H133.678V0.34787H134.823ZM97.6916 0.34787C101.855 0.34787 104.338 2.44649 104.338 5.95371C104.338 8.29185 103.204 10.0711 101.143 10.9836L104.964 15.8937V16.6407H101.661L97.8169 11.6622H93.7678V16.6407H90.6071V0.34787H97.6916ZM24.7162 0.34787L24.8016 0.427709L35.1779 10.3391V0.34787H38.3386V16.6407H37.2565L37.1768 16.5609L26.8006 6.49547V16.6407H23.6399V0.34787H24.7162ZM118.45 0.296545C118.957 0.296545 119.412 0.581684 119.646 1.03791L127.1 16.635H123.513L122.334 14.2513H114.549L113.398 16.635H109.839L117.26 1.0322C117.487 0.575981 117.943 0.296545 118.45 0.296545ZM53.3448 0.296545C53.8517 0.296545 54.3073 0.581684 54.5408 1.03791L61.9898 16.635H58.4077L57.2288 14.2513H49.4438L48.2934 16.635H44.734L52.1546 1.0322C52.3824 0.575981 52.838 0.296545 53.3448 0.296545ZM8.61081 0.296545C9.11766 0.296545 9.57326 0.581684 9.80675 1.03791L17.0565 16.2301L17.2501 16.635H13.6679L13.5882 16.4753L12.4891 14.2513H4.70975L3.6334 16.4753L3.55367 16.635H0L0.193629 16.2301L7.42056 1.0322C7.64835 0.575981 8.10395 0.296545 8.61081 0.296545ZM118.456 5.1154L115.819 11.5595H121.07L118.456 5.1154ZM53.3505 5.1154L50.7138 11.5595H55.9645L53.3505 5.1154ZM8.61081 5.1154L5.97403 11.5595H11.2248L8.61081 5.1154ZM97.6119 3.22207H93.7678V8.83932H97.7714C99.2862 8.83932 101.097 8.35458 101.097 6.05636C101.097 3.59275 98.9104 3.22207 97.6119 3.22207Z" fill="#363433"/>
</svg>
