<?xml version="1.0" encoding="utf-8"?>
<!-- Generator: Adobe Illustrator 23.1.1, SVG Export Plug-In . SVG Version: 6.00 Build 0)  -->
<svg version="1.1" id="Layer_1" xmlns="http://www.w3.org/2000/svg" xmlns:xlink="http://www.w3.org/1999/xlink" x="0px" y="0px"
	 viewBox="0 0 310.85 69.49" style="enable-background:new 0 0 310.85 69.49;" xml:space="preserve">
<style type="text/css">
	.st0{clip-path:url(#SVGID_2_);}
</style>
<polygon points="84,20.44 83.5,20.44 83.5,20.94 83.5,37.96 65.28,20.58 65.13,20.44 64.93,20.44 63.74,20.44 63.24,20.44 
	63.24,20.94 63.24,48.51 63.24,49.01 63.74,49.01 68.29,49.01 68.79,49.01 68.79,48.51 68.79,31.22 87.01,48.87 87.15,49.01 
	87.35,49.01 88.55,49.01 89.05,49.01 89.05,48.51 89.05,20.94 89.05,20.44 88.55,20.44 "/>
<g>
	<defs>
		<rect id="SVGID_1_" y="0" width="310.85" height="69.49"/>
	</defs>
	<clipPath id="SVGID_2_">
		<use xlink:href="#SVGID_1_"  style="overflow:visible;"/>
	</clipPath>
	<path class="st0" d="M152.75,32.43v4.86h8.95c-0.17,4.2-3.26,6.99-7.81,6.99c-5.41,0-9.19-3.91-9.19-9.52
		c0-5.66,3.82-9.61,9.29-9.61c4.55,0,7.68,2.95,7.68,2.95l3.31-4.26c0,0-3.68-4.01-10.94-4.01c-8.84,0-15.02,6.14-15.02,14.93
		c0,8.76,6.14,14.88,14.93,14.88c8.33,0,13.5-5.51,13.5-14.38v-2.84H152.75z"/>
	<path class="st0" d="M199.33,39.09c3.62-1.6,5.61-4.72,5.61-8.82c0-6.15-4.36-9.83-11.67-9.83h-12.44v28.57h5.55v-8.73h7.11
		l6.75,8.73h5.8v-1.31L199.33,39.09z M186.37,25.48h6.76c2.28,0,6.12,0.65,6.12,4.97c0,4.03-3.18,4.88-5.84,4.88h-7.03V25.48z"/>
	<path class="st0" d="M283.2,20.44l-12.41,13.84l-12.32-13.84h-2.01v28.57h5.55V31.91l7.05,8.38c0.48,0.49,1.08,0.75,1.73,0.75
		c0.65,0,1.26-0.26,1.71-0.73l7.07-8.4v17.09h5.55V20.44H283.2z"/>
	<path class="st0" d="M38.95,21.65c-0.41-0.8-1.21-1.3-2.1-1.3c-0.89,0-1.69,0.49-2.09,1.29L22.07,48.29l-0.34,0.71h0.79h5.14h0.31
		l0.14-0.28l1.89-3.9h13.66l1.93,3.9l0.14,0.28h0.31h5.19h0.79l-0.34-0.71L38.95,21.65z M41.44,40.1h-9.22l4.63-11.3L41.44,40.1z"/>
	<path class="st0" d="M117.5,21.65c-0.41-0.8-1.21-1.3-2.1-1.3c-0.89,0-1.69,0.49-2.09,1.29l-13.03,27.36h6.25l2.02-4.18h13.67
		l2.07,4.18h6.29L117.5,21.65z M120,40.1h-9.22l4.63-11.3L120,40.1z"/>
	<path class="st0" d="M231.82,21.65c-0.41-0.8-1.21-1.3-2.1-1.3c-0.89,0-1.69,0.49-2.09,1.29l-13.03,27.36h6.25l2.02-4.18h13.67
		l2.07,4.18h6.3L231.82,21.65z M234.32,40.1h-9.22l4.63-11.3L234.32,40.1z"/>
</g>
</svg>
